<mxfile host="Electron" agent="Mozilla/5.0 (Macintosh; Intel Mac OS X 10_15_7) AppleWebKit/537.36 (KHTML, like Gecko) draw.io/24.7.17 Chrome/128.0.6613.36 Electron/32.0.1 Safari/537.36" version="24.7.17">
  <diagram name="Page-1" id="V08ap8E0NVLRGJAHd-D4">
    <mxGraphModel dx="1044" dy="824" grid="1" gridSize="10" guides="1" tooltips="1" connect="1" arrows="1" fold="1" page="1" pageScale="1" pageWidth="827" pageHeight="1169" math="0" shadow="0">
      <root>
        <mxCell id="0" />
        <mxCell id="1" parent="0" />
        <mxCell id="MGUjlysSIzIO7Pa3lOrC-1" value="Customer" style="shape=umlActor;verticalLabelPosition=bottom;verticalAlign=top;html=1;outlineConnect=0;" parent="1" vertex="1">
          <mxGeometry x="140" y="329" width="30" height="60" as="geometry" />
        </mxCell>
        <mxCell id="MGUjlysSIzIO7Pa3lOrC-2" value="Railway&lt;div&gt;&lt;span style=&quot;background-color: initial;&quot;&gt;Reservation&lt;/span&gt;&lt;div&gt;&lt;div&gt;&lt;span style=&quot;background-color: initial;&quot;&gt;System&lt;/span&gt;&lt;/div&gt;&lt;/div&gt;&lt;/div&gt;" style="shape=umlActor;verticalLabelPosition=bottom;verticalAlign=top;html=1;outlineConnect=0;" parent="1" vertex="1">
          <mxGeometry x="680" y="329" width="30" height="60" as="geometry" />
        </mxCell>
        <mxCell id="ixWkI1Jx16nP_ZpbFffb-1" value="Create&lt;div&gt;Account&lt;/div&gt;" style="ellipse;whiteSpace=wrap;html=1;" vertex="1" parent="1">
          <mxGeometry x="260" y="129" width="90" height="40" as="geometry" />
        </mxCell>
        <mxCell id="ixWkI1Jx16nP_ZpbFffb-2" value="Sign-In" style="ellipse;whiteSpace=wrap;html=1;" vertex="1" parent="1">
          <mxGeometry x="320" y="179" width="90" height="40" as="geometry" />
        </mxCell>
        <mxCell id="ixWkI1Jx16nP_ZpbFffb-4" value="Search&lt;div&gt;Ticket&lt;/div&gt;" style="ellipse;whiteSpace=wrap;html=1;" vertex="1" parent="1">
          <mxGeometry x="340" y="229" width="90" height="40" as="geometry" />
        </mxCell>
        <mxCell id="ixWkI1Jx16nP_ZpbFffb-13" value="Book&lt;div&gt;Ticket&lt;/div&gt;" style="ellipse;whiteSpace=wrap;html=1;" vertex="1" parent="1">
          <mxGeometry x="360" y="289" width="90" height="40" as="geometry" />
        </mxCell>
        <mxCell id="ixWkI1Jx16nP_ZpbFffb-15" value="Payment" style="ellipse;whiteSpace=wrap;html=1;" vertex="1" parent="1">
          <mxGeometry x="360" y="349" width="90" height="40" as="geometry" />
        </mxCell>
        <mxCell id="ixWkI1Jx16nP_ZpbFffb-17" value="Print&lt;div&gt;Ticket&lt;/div&gt;" style="ellipse;whiteSpace=wrap;html=1;" vertex="1" parent="1">
          <mxGeometry x="360" y="409" width="90" height="40" as="geometry" />
        </mxCell>
        <mxCell id="ixWkI1Jx16nP_ZpbFffb-25" value="Cancel&lt;div&gt;Ticket&lt;/div&gt;" style="ellipse;whiteSpace=wrap;html=1;" vertex="1" parent="1">
          <mxGeometry x="340" y="469" width="90" height="40" as="geometry" />
        </mxCell>
        <mxCell id="ixWkI1Jx16nP_ZpbFffb-39" value="Refund&lt;div&gt;Money&lt;/div&gt;" style="ellipse;whiteSpace=wrap;html=1;" vertex="1" parent="1">
          <mxGeometry x="320" y="539" width="90" height="40" as="geometry" />
        </mxCell>
        <mxCell id="ixWkI1Jx16nP_ZpbFffb-44" value="" style="endArrow=none;html=1;rounded=0;entryX=0;entryY=1;entryDx=0;entryDy=0;" edge="1" parent="1" source="MGUjlysSIzIO7Pa3lOrC-1" target="ixWkI1Jx16nP_ZpbFffb-1">
          <mxGeometry width="50" height="50" relative="1" as="geometry">
            <mxPoint x="170" y="334" as="sourcePoint" />
            <mxPoint x="220" y="284" as="targetPoint" />
          </mxGeometry>
        </mxCell>
        <mxCell id="ixWkI1Jx16nP_ZpbFffb-45" value="" style="endArrow=none;html=1;rounded=0;entryX=0.044;entryY=0.7;entryDx=0;entryDy=0;entryPerimeter=0;" edge="1" parent="1" target="ixWkI1Jx16nP_ZpbFffb-2">
          <mxGeometry width="50" height="50" relative="1" as="geometry">
            <mxPoint x="170" y="345" as="sourcePoint" />
            <mxPoint x="323.96000000000004" y="209" as="targetPoint" />
          </mxGeometry>
        </mxCell>
        <mxCell id="ixWkI1Jx16nP_ZpbFffb-46" value="" style="endArrow=none;html=1;rounded=0;" edge="1" parent="1" source="MGUjlysSIzIO7Pa3lOrC-1" target="ixWkI1Jx16nP_ZpbFffb-4">
          <mxGeometry width="50" height="50" relative="1" as="geometry">
            <mxPoint x="400" y="479" as="sourcePoint" />
            <mxPoint x="450" y="429" as="targetPoint" />
          </mxGeometry>
        </mxCell>
        <mxCell id="ixWkI1Jx16nP_ZpbFffb-48" value="" style="endArrow=none;html=1;rounded=0;" edge="1" parent="1" source="MGUjlysSIzIO7Pa3lOrC-1" target="ixWkI1Jx16nP_ZpbFffb-13">
          <mxGeometry width="50" height="50" relative="1" as="geometry">
            <mxPoint x="400" y="479" as="sourcePoint" />
            <mxPoint x="450" y="429" as="targetPoint" />
          </mxGeometry>
        </mxCell>
        <mxCell id="ixWkI1Jx16nP_ZpbFffb-49" value="" style="endArrow=none;html=1;rounded=0;" edge="1" parent="1" source="MGUjlysSIzIO7Pa3lOrC-1" target="ixWkI1Jx16nP_ZpbFffb-15">
          <mxGeometry width="50" height="50" relative="1" as="geometry">
            <mxPoint x="400" y="479" as="sourcePoint" />
            <mxPoint x="450" y="429" as="targetPoint" />
          </mxGeometry>
        </mxCell>
        <mxCell id="ixWkI1Jx16nP_ZpbFffb-50" value="" style="endArrow=none;html=1;rounded=0;entryX=0.044;entryY=0.325;entryDx=0;entryDy=0;entryPerimeter=0;" edge="1" parent="1" source="MGUjlysSIzIO7Pa3lOrC-1" target="ixWkI1Jx16nP_ZpbFffb-17">
          <mxGeometry width="50" height="50" relative="1" as="geometry">
            <mxPoint x="400" y="479" as="sourcePoint" />
            <mxPoint x="450" y="429" as="targetPoint" />
          </mxGeometry>
        </mxCell>
        <mxCell id="ixWkI1Jx16nP_ZpbFffb-51" value="" style="endArrow=none;html=1;rounded=0;entryX=0;entryY=0.5;entryDx=0;entryDy=0;" edge="1" parent="1" source="MGUjlysSIzIO7Pa3lOrC-1" target="ixWkI1Jx16nP_ZpbFffb-25">
          <mxGeometry width="50" height="50" relative="1" as="geometry">
            <mxPoint x="400" y="479" as="sourcePoint" />
            <mxPoint x="450" y="429" as="targetPoint" />
          </mxGeometry>
        </mxCell>
        <mxCell id="ixWkI1Jx16nP_ZpbFffb-52" value="" style="endArrow=none;html=1;rounded=0;entryX=0;entryY=0;entryDx=0;entryDy=0;" edge="1" parent="1" source="MGUjlysSIzIO7Pa3lOrC-1" target="ixWkI1Jx16nP_ZpbFffb-39">
          <mxGeometry width="50" height="50" relative="1" as="geometry">
            <mxPoint x="400" y="479" as="sourcePoint" />
            <mxPoint x="450" y="429" as="targetPoint" />
          </mxGeometry>
        </mxCell>
        <mxCell id="ixWkI1Jx16nP_ZpbFffb-53" value="Edit&lt;div&gt;Account&lt;/div&gt;" style="ellipse;whiteSpace=wrap;html=1;" vertex="1" parent="1">
          <mxGeometry x="510" y="179" width="90" height="40" as="geometry" />
        </mxCell>
        <mxCell id="ixWkI1Jx16nP_ZpbFffb-56" value="+CreateAccount()" style="text;html=1;align=center;verticalAlign=middle;whiteSpace=wrap;rounded=0;rotation=-60;" vertex="1" parent="1">
          <mxGeometry x="190" y="219" width="60" height="30" as="geometry" />
        </mxCell>
        <mxCell id="ixWkI1Jx16nP_ZpbFffb-57" value="+CreateID()" style="text;html=1;align=center;verticalAlign=middle;whiteSpace=wrap;rounded=0;rotation=-60;" vertex="1" parent="1">
          <mxGeometry x="200" y="234" width="60" height="30" as="geometry" />
        </mxCell>
        <mxCell id="ixWkI1Jx16nP_ZpbFffb-59" value="&amp;lt;&amp;lt;include&amp;gt;&amp;gt;" style="text;html=1;align=center;verticalAlign=middle;whiteSpace=wrap;rounded=0;" vertex="1" parent="1">
          <mxGeometry x="430" y="169" width="60" height="30" as="geometry" />
        </mxCell>
        <mxCell id="ixWkI1Jx16nP_ZpbFffb-60" value="" style="endArrow=classic;html=1;rounded=0;exitX=1;exitY=0.5;exitDx=0;exitDy=0;entryX=0;entryY=0.5;entryDx=0;entryDy=0;dashed=1;strokeWidth=2;" edge="1" parent="1" source="ixWkI1Jx16nP_ZpbFffb-2" target="ixWkI1Jx16nP_ZpbFffb-53">
          <mxGeometry width="50" height="50" relative="1" as="geometry">
            <mxPoint x="570" y="469" as="sourcePoint" />
            <mxPoint x="620" y="419" as="targetPoint" />
          </mxGeometry>
        </mxCell>
        <mxCell id="ixWkI1Jx16nP_ZpbFffb-61" value="" style="endArrow=none;html=1;rounded=0;exitX=1;exitY=0.5;exitDx=0;exitDy=0;" edge="1" parent="1" source="ixWkI1Jx16nP_ZpbFffb-1" target="MGUjlysSIzIO7Pa3lOrC-2">
          <mxGeometry width="50" height="50" relative="1" as="geometry">
            <mxPoint x="570" y="469" as="sourcePoint" />
            <mxPoint x="620" y="419" as="targetPoint" />
            <Array as="points">
              <mxPoint x="620" y="149" />
            </Array>
          </mxGeometry>
        </mxCell>
        <mxCell id="ixWkI1Jx16nP_ZpbFffb-62" value="" style="endArrow=none;html=1;rounded=0;" edge="1" parent="1" source="ixWkI1Jx16nP_ZpbFffb-2" target="MGUjlysSIzIO7Pa3lOrC-2">
          <mxGeometry width="50" height="50" relative="1" as="geometry">
            <mxPoint x="570" y="469" as="sourcePoint" />
            <mxPoint x="670" y="335" as="targetPoint" />
          </mxGeometry>
        </mxCell>
        <mxCell id="ixWkI1Jx16nP_ZpbFffb-64" value="" style="endArrow=none;html=1;rounded=0;exitX=1;exitY=0.5;exitDx=0;exitDy=0;" edge="1" parent="1" source="ixWkI1Jx16nP_ZpbFffb-4" target="MGUjlysSIzIO7Pa3lOrC-2">
          <mxGeometry width="50" height="50" relative="1" as="geometry">
            <mxPoint x="570" y="469" as="sourcePoint" />
            <mxPoint x="690" y="359" as="targetPoint" />
          </mxGeometry>
        </mxCell>
        <mxCell id="ixWkI1Jx16nP_ZpbFffb-66" value="" style="endArrow=none;html=1;rounded=0;" edge="1" parent="1" source="ixWkI1Jx16nP_ZpbFffb-13" target="MGUjlysSIzIO7Pa3lOrC-2">
          <mxGeometry width="50" height="50" relative="1" as="geometry">
            <mxPoint x="440" y="319" as="sourcePoint" />
            <mxPoint x="620" y="419" as="targetPoint" />
          </mxGeometry>
        </mxCell>
        <mxCell id="ixWkI1Jx16nP_ZpbFffb-67" value="" style="endArrow=none;html=1;rounded=0;exitX=1;exitY=0.5;exitDx=0;exitDy=0;" edge="1" parent="1" source="ixWkI1Jx16nP_ZpbFffb-15" target="MGUjlysSIzIO7Pa3lOrC-2">
          <mxGeometry width="50" height="50" relative="1" as="geometry">
            <mxPoint x="470" y="389" as="sourcePoint" />
            <mxPoint x="620" y="419" as="targetPoint" />
          </mxGeometry>
        </mxCell>
        <mxCell id="ixWkI1Jx16nP_ZpbFffb-68" value="" style="endArrow=none;html=1;rounded=0;exitX=1;exitY=0.5;exitDx=0;exitDy=0;" edge="1" parent="1" source="ixWkI1Jx16nP_ZpbFffb-17" target="MGUjlysSIzIO7Pa3lOrC-2">
          <mxGeometry width="50" height="50" relative="1" as="geometry">
            <mxPoint x="570" y="469" as="sourcePoint" />
            <mxPoint x="620" y="419" as="targetPoint" />
          </mxGeometry>
        </mxCell>
        <mxCell id="ixWkI1Jx16nP_ZpbFffb-69" value="" style="endArrow=none;html=1;rounded=0;exitX=1;exitY=0.5;exitDx=0;exitDy=0;" edge="1" parent="1" source="ixWkI1Jx16nP_ZpbFffb-25" target="MGUjlysSIzIO7Pa3lOrC-2">
          <mxGeometry width="50" height="50" relative="1" as="geometry">
            <mxPoint x="570" y="469" as="sourcePoint" />
            <mxPoint x="620" y="419" as="targetPoint" />
          </mxGeometry>
        </mxCell>
        <mxCell id="ixWkI1Jx16nP_ZpbFffb-70" value="" style="endArrow=none;html=1;rounded=0;exitX=1;exitY=0.5;exitDx=0;exitDy=0;" edge="1" parent="1" source="ixWkI1Jx16nP_ZpbFffb-39">
          <mxGeometry width="50" height="50" relative="1" as="geometry">
            <mxPoint x="570" y="469" as="sourcePoint" />
            <mxPoint x="680" y="369" as="targetPoint" />
          </mxGeometry>
        </mxCell>
        <mxCell id="ixWkI1Jx16nP_ZpbFffb-71" value="Admin" style="shape=umlActor;verticalLabelPosition=bottom;verticalAlign=top;html=1;outlineConnect=0;" vertex="1" parent="1">
          <mxGeometry x="140" y="529" width="30" height="60" as="geometry" />
        </mxCell>
        <mxCell id="ixWkI1Jx16nP_ZpbFffb-72" value="" style="endArrow=none;html=1;rounded=0;" edge="1" parent="1" source="ixWkI1Jx16nP_ZpbFffb-71" target="ixWkI1Jx16nP_ZpbFffb-39">
          <mxGeometry width="50" height="50" relative="1" as="geometry">
            <mxPoint x="430" y="429" as="sourcePoint" />
            <mxPoint x="480" y="379" as="targetPoint" />
          </mxGeometry>
        </mxCell>
        <mxCell id="ixWkI1Jx16nP_ZpbFffb-73" value="+Validation()" style="text;html=1;align=center;verticalAlign=middle;whiteSpace=wrap;rounded=0;rotation=30;" vertex="1" parent="1">
          <mxGeometry x="521" y="259" width="60" height="30" as="geometry" />
        </mxCell>
        <mxCell id="ixWkI1Jx16nP_ZpbFffb-74" value="+Validation()" style="text;html=1;align=center;verticalAlign=middle;whiteSpace=wrap;rounded=0;rotation=0;" vertex="1" parent="1">
          <mxGeometry x="480" y="343" width="60" height="30" as="geometry" />
        </mxCell>
        <mxCell id="ixWkI1Jx16nP_ZpbFffb-75" value="&lt;font style=&quot;font-size: 12px;&quot;&gt;+Authorisation()&lt;/font&gt;" style="text;html=1;align=center;verticalAlign=middle;whiteSpace=wrap;rounded=0;fontSize=12;" vertex="1" parent="1">
          <mxGeometry x="220" y="532" width="60" height="30" as="geometry" />
        </mxCell>
        <mxCell id="ixWkI1Jx16nP_ZpbFffb-76" value="&lt;h1 style=&quot;margin-top: 0px; font-size: 20px;&quot;&gt;&lt;span style=&quot;background-color: initial; font-size: 20px;&quot;&gt;Use Case Diagram for Online PoS System for Railway Ticket&lt;/span&gt;&lt;br style=&quot;font-size: 20px;&quot;&gt;&lt;/h1&gt;" style="text;html=1;whiteSpace=wrap;overflow=hidden;rounded=0;fontSize=20;fontStyle=5;align=center;" vertex="1" parent="1">
          <mxGeometry x="90" y="40" width="630" height="40" as="geometry" />
        </mxCell>
      </root>
    </mxGraphModel>
  </diagram>
</mxfile>
